<svg width="14" height="17" viewBox="0 0 14 17" fill="none" xmlns="http://www.w3.org/2000/svg">
<path d="M7.17631 5.104C6.51765 5.104 5.97165 4.90467 5.53831 4.506C5.12231 4.09 4.91431 3.57867 4.91431 2.972C4.91431 2.36533 5.12231 1.86267 5.53831 1.464C5.97165 1.048 6.51765 0.839999 7.17631 0.839999C7.81765 0.839999 8.34631 1.048 8.76231 1.464C9.17831 1.86267 9.38631 2.36533 9.38631 2.972C9.38631 3.57867 9.17831 4.09 8.76231 4.506C8.34631 4.90467 7.81765 5.104 7.17631 5.104ZM13.7283 7.132V10.304H0.468313V7.132H13.7283ZM7.17631 16.57C6.51765 16.57 5.97165 16.3707 5.53831 15.972C5.12231 15.556 4.91431 15.0447 4.91431 14.438C4.91431 13.8313 5.12231 13.3287 5.53831 12.93C5.97165 12.514 6.51765 12.306 7.17631 12.306C7.81765 12.306 8.34631 12.514 8.76231 12.93C9.17831 13.3287 9.38631 13.8313 9.38631 14.438C9.38631 15.0447 9.17831 15.556 8.76231 15.972C8.34631 16.3707 7.81765 16.57 7.17631 16.57Z" fill="#373737"/>
</svg>
